<svg width="1576" height="850.9" version="1.1" viewBox="0 0 417.1 225.2" xmlns="http://www.w3.org/2000/svg">
<defs>
<linearGradient id="a" x1="68.72" x2="68.72" y2="125.6" gradientUnits="userSpaceOnUse">
<stop style="stop-color:#373ec8" offset="0"/>
<stop style="stop-color:#6ea6fb" offset=".5973"/>
</linearGradient>
</defs>
<g transform="matrix(2.626 0 0 1.418 .105 0)" style="stroke-width:.5182">
<rect width="158.8" height="125.1" style="fill:url(#a);stroke-width:.1371"/>
<path d="m120.5 75.7c-0.7341 0.01766-1.606 0.3153-2.67 0.9488-10.81 6.434-7.206 21.62-21.36 29.34-14.16 7.721-16.99 5.147-27.54 6.434s-6.434 5.662-28.31-14.67c-19.65-18.26-13.9-1.287-40.66 5.662v55.33h158.8v-42.06c-5.609-7.184-11.72-13.17-17.71-15.59-17.65-7.106-14.52-25.54-20.49-25.4z" style="fill:#c87137;stroke-width:.1371"/>
<path d="m84.09 102.4c-1.178-0.0101-2.351 0.6352-3.571 2.152-9.523 11.84-7.463 27.28-27.28 35.26-13.3 5.354-38.26 7.944-53.24 9.068v9.908h158.8v-44.37c-17.03 19.23-19.91-4.99-30.36-6.264-10.55-1.287-6.949 23.68-21.1 15.96-11.72-6.394-17.52-21.66-23.19-21.71z" style="fill:#cd7e49;stroke-width:.1371"/>
</g>
<path d="m115.2 55.92a10.6 7.212 0 0 0-10.6 7.212 10.6 7.212 0 0 0 0.3505 1.839 8.831 7.654 0 0 0-3.294 5.962 8.831 7.654 0 0 0 8.832 7.654 8.831 7.654 0 0 0 5.438-1.623 8.979 7.801 0 0 0 4.264 1.302 8.831 6.624 0 0 0 6.783 2.382 8.831 6.624 0 0 0 8.832-6.623 8.831 6.624 0 0 0-0.1122-1.052 10.01 8.096 0 0 0 5.411-7.191 10.01 8.096 0 0 0-10.01-8.095 10.01 8.096 0 0 0-6.587 2 10.6 7.212 0 0 0-9.31-3.766z" style="fill:#f9f9f9"/>
<path d="m189.2 37.58a8.39 10.16 0 0 0-8.39 10.16 8.39 10.16 0 0 0 0.0393 0.978 7.948 7.36 0 0 0-2.775 1.249 6.74 10 0 0 0-6.01-5.475 6.74 10 0 0 0-6.741 10 6.74 10 0 0 0 6.741 10 6.74 10 0 0 0 2.863-0.9475 9.126 6.329 0 0 0 9.121 6.124 9.126 6.329 0 0 0 7.058-2.317 9.273 7.801 0 0 0 7.22 2.906 9.273 7.801 0 0 0 9.273-7.801 9.273 7.801 0 0 0-1.18-3.808 9.126 5.446 0 0 0 3.829-4.435 9.126 5.446 0 0 0-9.126-5.446 9.126 5.446 0 0 0-3.622 0.4477 8.39 10.16 0 0 0 0.0894-1.478 8.39 10.16 0 0 0-8.39-10.16zm1.821 20.07h5.1e-4a9.273 7.801 0 0 0-0.8048 1.023 9.126 6.329 0 0 0-0.0103-0.0062 7.948 7.36 0 0 0 0.335-0.9051 8.39 10.16 0 0 0 0.4797-0.1117z" style="fill:#f9f9f9"/>
<circle cx="45.92" cy="50.07" r="13.55" style="fill:#ff0"/>
<path d="m348.5 42.16a13.92 9.784 0 0 0-13.58 7.638 14.35 11.52 0 0 0-2.948-0.2455 14.35 11.52 0 0 0-14.35 11.52 14.35 11.52 0 0 0 14.35 11.52 14.35 11.52 0 0 0 4-0.457 16.52 8.697 0 0 0 13.83 3.936 16.52 8.697 0 0 0 16.52-8.697 16.52 8.697 0 0 0-0.2419-1.483 15 8.697 0 0 0 11.98-8.519 15 8.697 0 0 0-15-8.697 15 8.697 0 0 0-1.428 0.0398 13.92 9.784 0 0 0-13.14-6.562z" style="fill:#f9f9f9;stroke-linejoin:bevel;stroke-width:1.112"/>
<path d="m276.9 58.02-15.21 10.81a18.7 13.7 0 0 0-0.2884-0.0015 18.7 13.7 0 0 0-4.084 0.3308l-19.7-4.382 4.621 9.795 1.289 3.923a18.7 13.7 0 0 0-0.8281 4.031 18.7 13.7 0 0 0 18.7 13.7 18.7 13.7 0 0 0 18.7-13.7 18.7 13.7 0 0 0-3.604-8.085l0.0925-5.61z" style="fill:#f9f9f9;stroke-linejoin:bevel;stroke-width:1.112"/>
</svg>
